<?xml version="1.0" encoding="iso-8859-1"?>
<!-- Generator: Adobe Illustrator 16.0.0, SVG Export Plug-In . SVG Version: 6.00 Build 0)  -->
<!DOCTYPE svg PUBLIC "-//W3C//DTD SVG 1.1//EN" "http://www.w3.org/Graphics/SVG/1.1/DTD/svg11.dtd">
<svg version="1.1" id="Capa_1" xmlns="http://www.w3.org/2000/svg" xmlns:xlink="http://www.w3.org/1999/xlink" x="0px" y="0px"
	 width="43.105px" height="43.105px" viewBox="0 0 43.105 43.105" style="enable-background:new 0 0 43.105 43.105;"
	 xml:space="preserve">
<g>
	<path d="M16.453,19.063c-0.874-0.047-1.596,0.411-2.057,1.069l1.463,0.704c0.335-0.201,0.789-0.194,1.137,0.023l1.514-0.728
		C18.05,19.511,17.329,19.111,16.453,19.063z M16.469,21.91c0.426,0,0.772,0.346,0.772,0.771s-0.346,0.771-0.772,0.771
		c-0.426,0-0.772-0.346-0.772-0.771C15.697,22.257,16.042,21.91,16.469,21.91z M16.453,9.595c-4.715-0.254-8.511,2.608-10.52,6.474
		l1.225,0.589c1.84-3.206,5.538-5.282,9.294-5.485c4.077-0.219,7.365,2.236,9.119,5.569l1.433-0.688
		C25.008,12.291,21.211,9.851,16.453,9.595z M16.192,12.751c-3.394-0.183-6.141,1.826-7.65,4.571l1.295,0.622
		c1.326-2.113,3.817-3.479,6.355-3.614c2.838-0.153,5.127,1.549,6.356,3.864l1.426-0.687C22.498,14.736,19.699,12.938,16.192,12.751
		z M16.192,15.907c-2.113-0.114-3.836,1.092-4.832,2.769l1.255,0.604c1.517-2.278,5.491-2.169,7.077,0.286l1.44-0.692
		C20.163,17.152,18.404,16.028,16.192,15.907z M32.201,15.928C32.201,7.145,25.056,0,16.275,0C7.493,0,0.346,7.145,0.346,15.928
		s7.146,15.928,15.928,15.928C25.056,31.855,32.201,24.711,32.201,15.928z M16.275,27.857c-6.578,0-11.929-5.352-11.929-11.93
		S9.697,3.999,16.275,3.999c6.578,0,11.928,5.351,11.928,11.929S22.852,27.857,16.275,27.857z M27.003,30.869l3.521-3.521
		L42.76,39.584l-3.521,3.521L27.003,30.869z"/>
</g>
<g>
</g>
<g>
</g>
<g>
</g>
<g>
</g>
<g>
</g>
<g>
</g>
<g>
</g>
<g>
</g>
<g>
</g>
<g>
</g>
<g>
</g>
<g>
</g>
<g>
</g>
<g>
</g>
<g>
</g>
</svg>
