<?xml version="1.0" encoding="iso-8859-1"?>
<!-- Generator: Adobe Illustrator 18.0.0, SVG Export Plug-In . SVG Version: 6.00 Build 0)  -->
<!DOCTYPE svg PUBLIC "-//W3C//DTD SVG 1.1//EN" "http://www.w3.org/Graphics/SVG/1.1/DTD/svg11.dtd">
<svg version="1.1" id="Capa_1" xmlns="http://www.w3.org/2000/svg" xmlns:xlink="http://www.w3.org/1999/xlink" x="0px" y="0px"
	 viewBox="0 0 58.201 58.201" style="enable-background:new 0 0 58.201 58.201;" xml:space="preserve">
<g>
	<path d="M44.1,32.201c-3.764,0-7.317,1.581-9.75,4.338c-0.365,0.415-0.326,1.047,0.088,1.412c0.415,0.365,1.045,0.327,1.412-0.088
		c2.053-2.327,5.061-3.662,8.25-3.662c6.065,0,11,4.935,11,11s-4.935,11-11,11c-4.992,0-9.407-3.367-10.741-8H38.1v-2h-8v8h2v-3.664
		c2.093,4.531,6.781,7.664,12,7.664c7.168,0,13-5.832,13-13S51.268,32.201,44.1,32.201z"/>
	<path d="M26.243,43.109c0.49-3.968,2.348-7.512,5.092-10.15c-0.854,0.049-1.729,0.086-2.628,0.111
		c-0.87,0.027-1.74,0.041-2.606,0.041c-0.869,0-1.742-0.014-2.614-0.042c-7.341-0.201-13.191-1.238-17.403-2.717
		C4.104,29.685,2.409,28.899,1.1,28v7.111v0.5v0.5V37.4c2.846,2.971,12.394,5.711,25,5.711
		C26.149,43.111,26.195,43.109,26.243,43.109z"/>
	<path d="M23.736,29.965c0.326,0.009,0.651,0.018,0.982,0.023C25.174,29.996,25.635,30,26.1,30s0.926-0.004,1.383-0.011
		c0.33-0.005,0.656-0.015,0.982-0.023c0.116-0.003,0.234-0.005,0.349-0.008c11.253-0.359,19.648-2.915,22.286-5.668V23v-0.5V22
		v-7.111C46.233,18.232,35.944,20,26.1,20s-20.133-1.768-25-5.111V22v0.5V23v1.289c2.638,2.754,11.033,5.31,22.286,5.668
		C23.502,29.96,23.62,29.962,23.736,29.965z"/>
	<path d="M51.1,11.306V9.5V9c0-0.168-0.056-0.319-0.135-0.458C49.843,4.241,41.215,0,26.1,0C11.023,0,2.404,4.22,1.247,8.51
		C1.162,8.657,1.1,8.818,1.1,9v0.5v1.806C3.937,14.267,13.417,17,26.1,17S48.264,14.267,51.1,11.306z"/>
	<path d="M26.151,46.2c-0.017,0-0.033,0-0.051,0c-12.346,0-20.866-2.29-25-5.201v8.201c0,0.162,0.043,0.315,0.117,0.451
		c1.181,4.895,11.747,8.549,24.883,8.549c2,0,3.93-0.094,5.787-0.255C28.584,55.035,26.425,50.872,26.151,46.2z"/>
</g>
<g>
</g>
<g>
</g>
<g>
</g>
<g>
</g>
<g>
</g>
<g>
</g>
<g>
</g>
<g>
</g>
<g>
</g>
<g>
</g>
<g>
</g>
<g>
</g>
<g>
</g>
<g>
</g>
<g>
</g>
</svg>
