<?xml version="1.0" encoding="iso-8859-1"?>
<!-- Generator: Adobe Illustrator 19.0.0, SVG Export Plug-In . SVG Version: 6.00 Build 0)  -->
<svg version="1.1" id="Capa_1" xmlns="http://www.w3.org/2000/svg" xmlns:xlink="http://www.w3.org/1999/xlink" x="0px" y="0px"
	 viewBox="0 0 512 512" style="enable-background:new 0 0 512 512;" xml:space="preserve">
<g>
	<g>
		<g>
			<path d="M384,367.595V352c0-17.643,14.357-32,32-32c5.888,0,10.667-4.779,10.667-10.667v-22.677c0-3.883-2.112-7.445-5.483-9.344
				c-3.392-1.877-7.509-1.771-10.816,0.299C367.765,304.149,294.123,320,213.355,320S58.923,304.149,16.341,277.611
				c-3.307-2.091-7.445-2.197-10.816-0.299s-5.483,5.461-5.483,9.344v44.011C0,366.72,85.717,405.333,213.333,405.333
				c86.251,0,139.904-17.493,164.203-27.947C381.461,375.723,384,371.861,384,367.595z"/>
			<path d="M213.333,192c119.616,0,213.333-42.176,213.333-96S332.949,0,213.333,0S0,42.176,0,96S93.717,192,213.333,192z"/>
			<path d="M426.667,352c0-5.888-4.779-10.667-10.667-10.667c-5.888,0-10.667,4.779-10.667,10.667v80.917l-24.448-24.448
				c-4.16-4.16-10.923-4.16-15.083,0c-4.16,4.16-4.16,10.923,0,15.083l42.667,42.667c1.003,1.003,2.155,1.707,3.349,2.24
				c0.043,0.021,0.064,0.064,0.107,0.085h0.043c1.301,0.533,2.667,0.811,4.053,0.811c1.365,0,2.752-0.277,4.032-0.789
				c1.28-0.533,2.475-1.301,3.499-2.325l42.667-42.667c4.16-4.16,4.16-10.923,0-15.083c-4.16-4.16-10.923-4.16-15.083,0
				l-24.448,24.448V352H426.667z"/>
			<path d="M501.333,448c-5.888,0-10.667,4.779-10.667,10.667v32H341.333v-32c0-5.888-4.779-10.667-10.667-10.667
				S320,452.779,320,458.667v42.667c0,5.888,4.779,10.667,10.667,10.667h170.667c5.888,0,10.667-4.779,10.667-10.667v-42.667
				C512,452.779,507.221,448,501.333,448z"/>
			<path d="M213.333,298.667c127.616,0,213.333-38.613,213.333-74.667v-52.821c0-4.032-2.283-7.723-5.888-9.536
				c-3.584-1.792-7.936-1.387-11.157,1.003c-42.453,31.723-115.819,50.688-196.288,50.688S59.499,194.368,17.045,162.645
				c-3.243-2.432-7.552-2.816-11.157-1.003C2.283,163.456,0,167.147,0,171.179V224C0,260.053,85.717,298.667,213.333,298.667z"/>
			<path d="M296.704,420.651c-26.88,4.011-54.933,6.016-83.371,6.016c-80.789,0-154.432-15.851-197.013-42.389
				c-3.307-2.069-7.445-2.176-10.816-0.299c-3.392,1.899-5.483,5.461-5.483,9.344v26.752c0,50.112,91.712,87.872,213.333,87.872
				c26.048,0,51.712-1.877,76.267-5.611c5.227-0.789,9.067-5.269,9.067-10.539v-33.131c0-9.472,4.203-16.427,7.744-20.587
				c2.88-3.371,3.349-8.192,1.195-12.075C305.429,422.123,301.184,419.968,296.704,420.651z"/>
		</g>
	</g>
</g>
<g>
</g>
<g>
</g>
<g>
</g>
<g>
</g>
<g>
</g>
<g>
</g>
<g>
</g>
<g>
</g>
<g>
</g>
<g>
</g>
<g>
</g>
<g>
</g>
<g>
</g>
<g>
</g>
<g>
</g>
</svg>
